#!OML:ASF H:\Terrain\Patient Classification 1\Walking\liu\liu.ASF
:FULLY-SPECIFIED
:DEGREES
114
root 9.361740 16.196699 -21.441000 4.181150 3.580170 4.721810
lowerback -81.113800 -31.879101 -57.248100
upperback -10.009299 -38.274799 23.092598
thorax 40.409599 -20.121201 51.807098
lowerneck -194.427002 -51.398102 -133.222000
upperneck 214.701996 -58.629700 108.067001
head 108.707001 -25.183401 52.731899
rclavicle 0.000000 -0.000000
rhumerus -464.192017 94.902000 -844.606995
rradius 355.628021
rwrist -193.854004
rhand -295.020996 -239.384003
rfingers 71.250198
rthumb -28.365801 -538.992981
lclavicle 0.000000 -0.000000
lhumerus -249.204010 -266.520020 926.210022
lradius 424.671997
lwrist 130.401001
lhand -130.813995 -255.227997
lfingers 71.250198
lthumb 130.147995 40.512299
rfemur -403.119019 116.365005 72.892395
rtibia 287.217987
rfoot -225.130005 -85.558205
rtoes -186.376984
lfemur 135.511002 5.615620 -289.859985
ltibia 0.000000
lfoot -140.326004 27.092800
ltoes -33.797802
115
root 9.354020 16.174900 -21.302401 4.231690 4.031380 4.633090
lowerback -81.471298 -33.070000 -56.301998
upperback -9.908000 -39.926701 23.148602
thorax 40.878700 -20.941200 51.089600
lowerneck -193.289001 -51.790199 -132.650009
upperneck 213.104996 -59.509201 108.473999
head 108.023003 -25.506800 52.597298
rclavicle 0.000000 0.000000
rhumerus -463.923981 91.380501 -842.543030
rradius 352.817017
rwrist -191.783005
rhand -293.330994 -233.050995
rfingers 71.250198
rthumb -26.734299 -532.681030
lclavicle 0.000000 0.000000
lhumerus -253.625000 -267.334991 929.122986
lradius 426.137024
lwrist 130.171997
lhand -127.579002 -252.959000
lfingers 71.250198
lthumb 133.266006 42.579697
rfemur -405.964020 122.383003 67.671295
rtibia 282.367981
rfoot -234.510010 -94.443596
rtoes -190.088013
lfemur 140.368011 4.723660 -287.252991
ltibia 0.000000
lfoot -143.807007 24.255901
ltoes -28.513700
116
root 9.342890 16.148899 -21.162600 4.385290 4.162020 4.727800
lowerback -83.436600 -33.689102 -57.206997
upperback -9.625460 -40.522800 22.312601
thorax 42.355000 -21.288799 50.533699
lowerneck -194.384995 -51.237000 -131.332993
upperneck 213.360001 -59.378601 109.869003
head 108.306000 -25.148399 52.931000
rclavicle 0.000000 -0.000000
rhumerus -463.457001 88.551598 -841.773010
rradius 350.807007
rwrist -190.025009
rhand -295.065002 -231.597000
rfingers 71.250198
rthumb -28.408798 -531.204956
lclavicle 0.000000 -0.000000
lhumerus -257.098022 -267.798004 931.119995
lradius 425.740021
lwrist 129.546997
lhand -128.509995 -253.971008
lfingers 71.250198
lthumb 132.367996 41.625702
rfemur -410.415985 123.666000 64.091202
rtibia 278.041016
rfoot -236.874008 -99.868202
rtoes -195.729996
lfemur 144.272003 6.706800 -286.700989
ltibia 0.000000
lfoot -148.100006 20.775799
ltoes -26.335102
117
root 9.328610 16.125200 -21.029100 4.543250 4.375630 4.954440
lowerback -83.407898 -33.420200 -59.263199
upperback -10.417600 -39.931702 21.088100
thorax 41.479702 -20.970600 50.509800
lowerneck -192.565994 -50.852200 -132.137009
upperneck 212.332001 -59.515701 112.828995
head 107.728996 -24.980801 54.144802
rclavicle -0.000000 0.000000
rhumerus -465.993011 83.788902 -839.652039
rradius 349.546997
rwrist -189.181000
rhand -294.992004 -227.688995
rfingers 71.250198
rthumb -28.338398 -527.298035
lclavicle -0.000000 0.000000
lhumerus -261.046021 -269.990997 935.921021
lradius 423.865021
lwrist 127.634003
lhand -129.091995 -254.899994
lfingers 71.250198
lthumb 131.807999 40.733101
rfemur -414.575012 123.746002 58.989799
rtibia 274.661987
rfoot -238.374008 -103.723000
rtoes -195.941010
lfemur 148.442001 7.771630 -287.417999
ltibia -0.000000
lfoot -151.628998 17.196100
ltoes -25.257198
118
root 9.315570 16.107100 -20.893400 4.469860 4.855270 5.214280
lowerback -80.204697 -33.993298 -61.952400
upperback -10.824300 -40.629200 20.514900
thorax 39.501602 -21.289501 51.501900
lowerneck -191.768005 -51.392101 -134.229004
upperneck 212.572006 -60.159103 114.379997
head 107.887001 -25.295000 55.002399
rclavicle 0.000000 -0.000000
rhumerus -467.001984 80.176300 -837.667969
rradius 345.632019
rwrist -184.978012
rhand -296.889984 -225.044006
rfingers 71.250198
rthumb -30.171499 -524.627991
lclavicle 0.000000 -0.000000
lhumerus -267.466003 -271.705994 941.859985
lradius 424.604004
lwrist 125.387001
lhand -125.017006 -251.867996
lfingers 71.250198
lthumb 135.735001 43.507099
rfemur -414.828003 124.924004 52.719303
rtibia 272.162994
rfoot -243.020004 -109.098999
rtoes -192.299988
lfemur 155.179993 6.514540 -288.088013
ltibia -0.000000
lfoot -153.470001 13.328000
ltoes -20.675001
119
root 9.305690 16.098801 -20.750700 4.517150 5.265240 5.445620
lowerback -79.922401 -35.443100 -64.303001
upperback -10.768800 -42.374603 20.552700
thorax 39.818100 -22.205999 52.648003
lowerneck -192.707001 -52.483501 -137.421997
upperneck 213.729004 -60.957901 115.455002
head 108.764999 -25.784599 55.871700
rclavicle -0.000000 0.000000
rhumerus -467.406982 82.098396 -838.523010
rradius 343.221008
rwrist -180.522003
rhand -302.765015 -232.582001
rfingers 71.250198
rthumb -35.844299 -532.078003
lclavicle -0.000000 0.000000
lhumerus -274.796021 -272.462006 946.759033
lradius 426.710022
lwrist 124.201004
lhand -121.423996 -248.875000
lfingers 71.250198
lthumb 139.197998 46.265503
rfemur -415.592987 124.441994 47.914501
rtibia 269.934021
rfoot -244.239014 -113.281006
rtoes -186.285004
lfemur 160.289001 5.790910 -288.654999
ltibia 0.000000
lfoot -153.723999 11.375199
ltoes -28.417700
120
root 9.292840 16.090300 -20.607401 4.788760 5.479890 5.363900
lowerback -82.508095 -35.706299 -63.383698
upperback -11.407400 -42.672699 21.136200
thorax 40.613899 -22.347801 52.586399
lowerneck -191.244995 -53.202400 -139.442993
upperneck 212.597992 -61.653000 116.195000
head 108.276993 -26.217999 56.350998
rclavicle -0.000000 0.000000
rhumerus -470.719971 81.182098 -836.539001
rradius 344.393005
rwrist -180.382004
rhand -300.397003 -234.577011
rfingers 71.250198
rthumb -33.557602 -534.109985
lclavicle -0.000000 0.000000
lhumerus -279.737000 -272.894012 951.957031
lradius 424.483978
lwrist 122.572006
lhand -119.757004 -246.238007
lfingers 71.250198
lthumb 140.804993 48.791901
rfemur -419.286987 125.775002 46.051601
rtibia 267.773010
rfoot -241.625000 -122.158005
rtoes -201.173996
lfemur 162.613998 6.754750 -285.789001
ltibia -0.000000
lfoot -154.652008 9.276010
ltoes -36.851799
121
root 9.276140 16.074100 -20.465500 4.939340 5.737160 5.178970
lowerback -83.261299 -36.160400 -61.996002
upperback -11.354300 -43.377499 21.678600
thorax 41.130600 -22.697102 52.235298
lowerneck -192.332001 -52.939903 -137.304001
upperneck 212.675003 -61.463600 114.919998
head 108.360992 -26.066101 55.526802
rclavicle -0.000000 -0.000000
rhumerus -470.884033 75.746597 -831.630981
rradius 343.515991
rwrist -181.809998
rhand -292.373993 -228.078995
rfingers 71.250198
rthumb -25.810101 -527.719971
lclavicle -0.000000 -0.000000
lhumerus -281.630005 -269.871002 954.942017
lradius 419.477997
lwrist 119.059998
lhand -115.818008 -241.968994
lfingers 71.250198
lthumb 144.598999 52.792900
rfemur -421.217987 126.404999 46.434303
rtibia 265.158020
rfoot -250.874008 -134.815994
rtoes -220.867996
lfemur 165.939011 7.469960 -281.359985
ltibia 0.000000
lfoot -155.725998 6.119050
ltoes -40.893204
